<?xml version="1.0" encoding="UTF-8" standalone="no"?>
<!-- Created with Inkscape (http://www.inkscape.org/) -->

<svg
   xmlns:dc="http://purl.org/dc/elements/1.1/"
   xmlns:cc="http://creativecommons.org/ns#"
   xmlns:rdf="http://www.w3.org/1999/02/22-rdf-syntax-ns#"
   xmlns:svg="http://www.w3.org/2000/svg"
   xmlns="http://www.w3.org/2000/svg"
   xmlns:sodipodi="http://sodipodi.sourceforge.net/DTD/sodipodi-0.dtd"
   xmlns:inkscape="http://www.inkscape.org/namespaces/inkscape"
   width="640px"
   height="480px"
   id="svg2985"
   version="1.1"
   inkscape:version="0.48.2 r9819"
   sodipodi:docname="oben.svg">
  <defs
     id="defs2987" />
  <sodipodi:namedview
     id="base"
     pagecolor="#ffffff"
     bordercolor="#666666"
     borderopacity="1.0"
     inkscape:pageopacity="0.0"
     inkscape:pageshadow="2"
     inkscape:zoom="1.095627"
     inkscape:cx="427.44123"
     inkscape:cy="152.61514"
     inkscape:current-layer="layer1"
     inkscape:document-units="px"
     showgrid="false"
     inkscape:window-width="1536"
     inkscape:window-height="801"
     inkscape:window-x="-8"
     inkscape:window-y="-8"
     inkscape:window-maximized="1" />
  <metadata
     id="metadata2990">
    <rdf:RDF>
      <cc:Work
         rdf:about="">
        <dc:format>image/svg+xml</dc:format>
        <dc:type
           rdf:resource="http://purl.org/dc/dcmitype/StillImage" />
        <dc:title></dc:title>
      </cc:Work>
    </rdf:RDF>
  </metadata>
  <g
     id="layer1"
     inkscape:label="Layer 1"
     inkscape:groupmode="layer">
    <path
       style="fill:none;stroke:#0cc116;stroke-width:3;stroke-linecap:butt;stroke-linejoin:miter;stroke-opacity:1;fill-opacity:1;stroke-miterlimit:4;stroke-dasharray:none"
       d="m 99.390072,77.276593 0,329.148937 440.156028,0 0,-326.567376 -436.28369,0"
       id="path2993"
       inkscape:connector-curvature="0" />
    <path
       style="fill:none;stroke:#0cc116;stroke-width:3;stroke-linecap:butt;stroke-linejoin:miter;stroke-opacity:1;stroke-miterlimit:4;stroke-dasharray:none"
       d="m 264.60993,405.13475 0,-144.56738 -165.219858,0 0,-181.999997 207.815608,0 0,182.645387 231.69503,0 -72.92908,0 0,46.46809 72.92908,0 0,98.74468 -110.3617,0 0,-98.74468 41.30496,0"
       id="path2995"
       inkscape:connector-curvature="0" />
    <path
       style="fill:none;stroke:#0cc116;stroke-width:3;stroke-linecap:butt;stroke-linejoin:miter;stroke-opacity:1;stroke-miterlimit:4;stroke-dasharray:none"
       d="m 307.20568,260.56737 -58.08511,0"
       id="path2997"
       inkscape:connector-curvature="0" />
    <path
       style="fill:none;stroke:#0cc116;stroke-width:1px;stroke-linecap:butt;stroke-linejoin:miter;stroke-opacity:1"
       d="m 428.53901,307.68085 -111.00709,0 c 0,0 -20.65249,23.23404 -5.16312,47.11348 15.48936,23.87943 53.56737,14.84397 53.56737,14.84397 0,0 39.3688,3.87234 39.3688,-24.52483"
       id="path3003"
       inkscape:connector-curvature="0" />
    <path
       style="fill:none;stroke:#0cc116;stroke-width:1px;stroke-linecap:butt;stroke-linejoin:miter;stroke-opacity:1"
       d="m 314.95036,310.26241 -50.98582,8.39007 43.88653,5.80851 -44.53192,9.68085 43.88653,8.39007 -41.95036,10.97164 44.53192,0.64539 -43.88653,25.8156 52.2766,-16.78014 -52.2766,40.65957 61.95745,-34.85106 -29.68795,36.14184 39.3688,-33.56028 -5.80851,32.91489 20.65248,-30.33333 6.4539,32.2695 11.61702,-35.49645 12.9078,34.20567 6.45391,-35.49645 20.65248,36.14184 -9.68085,-45.82269 26.46099,7.09929 -21.94326,-16.13476 21.94326,-5.16312 -23.23404,-0.64539"
       id="path3005"
       inkscape:connector-curvature="0" />
  </g>
</svg>
