<?xml version="1.0" encoding="UTF-8" standalone="no"?>
<!-- Created with Inkscape (http://www.inkscape.org/) -->

<svg
   xmlns:dc="http://purl.org/dc/elements/1.1/"
   xmlns:cc="http://creativecommons.org/ns#"
   xmlns:rdf="http://www.w3.org/1999/02/22-rdf-syntax-ns#"
   xmlns:svg="http://www.w3.org/2000/svg"
   xmlns="http://www.w3.org/2000/svg"
   xmlns:sodipodi="http://sodipodi.sourceforge.net/DTD/sodipodi-0.dtd"
   xmlns:inkscape="http://www.inkscape.org/namespaces/inkscape"
   width="640px"
   height="480px"
   id="svg3775"
   version="1.1"
   inkscape:version="0.48.2 r9819"
   sodipodi:docname="Neues Dokument 4">
  <defs
     id="defs3777" />
  <sodipodi:namedview
     id="base"
     pagecolor="#ffffff"
     bordercolor="#666666"
     borderopacity="1.0"
     inkscape:pageopacity="0.0"
     inkscape:pageshadow="2"
     inkscape:zoom="1.5494505"
     inkscape:cx="391.4397"
     inkscape:cy="213.27986"
     inkscape:current-layer="layer1"
     inkscape:document-units="px"
     showgrid="false"
     inkscape:window-width="1536"
     inkscape:window-height="801"
     inkscape:window-x="-8"
     inkscape:window-y="-8"
     inkscape:window-maximized="1" />
  <metadata
     id="metadata3780">
    <rdf:RDF>
      <cc:Work
         rdf:about="">
        <dc:format>image/svg+xml</dc:format>
        <dc:type
           rdf:resource="http://purl.org/dc/dcmitype/StillImage" />
        <dc:title></dc:title>
      </cc:Work>
    </rdf:RDF>
  </metadata>
  <g
     id="layer1"
     inkscape:label="Layer 1"
     inkscape:groupmode="layer">
    <path
       style="fill:none;stroke:#0cc116;stroke-width:3;stroke-linecap:butt;stroke-linejoin:miter;stroke-opacity:1;stroke-miterlimit:4;stroke-dasharray:none"
       d="m 99.390072,81.148934 0,300.751776 440.156028,0 0,-302.042556 z"
       id="path3785"
       inkscape:connector-curvature="0" />
    <path
       style="fill:none;stroke:#0cc116;stroke-width:3;stroke-linecap:butt;stroke-linejoin:miter;stroke-opacity:1;stroke-miterlimit:4;stroke-dasharray:none"
       d="m 100.03546,199.90071 438.86525,0"
       id="path4297"
       inkscape:connector-curvature="0" />
    <path
       style="fill:none;stroke:#0cc116;stroke-width:3;stroke-linecap:butt;stroke-linejoin:miter;stroke-opacity:1;stroke-miterlimit:4;stroke-dasharray:none"
       d="m 213.62411,200.5461 0,179.41844"
       id="path4299"
       inkscape:connector-curvature="0" />
    <path
       style="fill:none;stroke:#0cc116;stroke-width:3;stroke-linecap:butt;stroke-linejoin:miter;stroke-opacity:1;stroke-miterlimit:4;stroke-dasharray:none"
       d="m 538.90071,263.14893 -77.44681,0 0,117.461 -43.24113,0 0,-115.52483"
       id="path4301"
       inkscape:connector-curvature="0" />
    <path
       style="fill:none;stroke:#0cc116;stroke-width:1px;stroke-linecap:butt;stroke-linejoin:miter;stroke-opacity:1"
       d="m 370.4539,267.02128 c 0,0 2.395,75.07664 -43.65711,75.61633 -46.05211,0.53969 -61.54147,-23.98513 -61.54147,-23.98513 l 0,-43.88652 -50.98582,11.61702 50.98582,10.97163 -51.63121,16.13475 52.2766,3.22695 -52.2766,25.8156 60.66667,-13.55319 -61.31206,49.04965 71.6383,-41.95036 -20.65248,45.17731 32.2695,-43.24114 1.93617,40.65958 16.13476,-35.49646 8.39007,38.72341 7.74468,-38.07802 20.00709,36.78724 -5.16312,-43.24114 34.85106,40.65958 -20.00709,-53.56738 56.79433,41.30497 -50.98582,-54.21277 50.98582,15.48936 -47.75887,-30.33333 45.8227,-1.29078 -43.88653,-14.84397 46.46809,-9.03546 z"
       id="path4303"
       inkscape:connector-curvature="0" />
  </g>
</svg>
